<svg width="373" height="96" viewBox="0 0 373 96" fill="none" xmlns="http://www.w3.org/2000/svg">
<path d="M42.176 69.416L6.464 37.16L9.216 38.696L9.408 67.496H0V18.536H0.384L35.328 50.664L33.28 49.768L33.088 20.392H42.432V69.416H42.176Z" fill="white"/>
<path d="M66.8505 68.264C63.4372 68.264 60.5358 67.624 58.1465 66.344C55.7998 65.064 54.0078 63.2933 52.7705 61.032C51.5332 58.7707 50.9145 56.168 50.9145 53.224C50.9145 50.408 51.6398 47.8693 53.0905 45.608C54.5412 43.3467 56.4825 41.5547 58.9145 40.232C61.3465 38.8667 64.0558 38.184 67.0425 38.184C71.0532 38.184 74.3385 39.3573 76.8985 41.704C79.5012 44.008 81.1865 47.3573 81.9545 51.752L60.1945 58.664L58.2105 53.8L73.9545 48.488L72.0985 49.32C71.7572 48.2107 71.1385 47.2507 70.2425 46.44C69.3892 45.5867 68.0878 45.16 66.3385 45.16C65.0158 45.16 63.8425 45.48 62.8185 46.12C61.8372 46.7173 61.0692 47.592 60.5145 48.744C60.0025 49.8533 59.7465 51.176 59.7465 52.712C59.7465 54.4613 60.0665 55.9333 60.7065 57.128C61.3465 58.28 62.2212 59.1547 63.3305 59.752C64.4398 60.3493 65.6772 60.648 67.0425 60.648C68.0238 60.648 68.9625 60.4773 69.8585 60.136C70.7972 59.7947 71.7145 59.3467 72.6105 58.792L76.5785 65.448C75.0852 66.3013 73.4638 66.984 71.7145 67.496C70.0078 68.008 68.3865 68.264 66.8505 68.264Z" fill="white"/>
<path d="M86.2895 53.16C86.2895 50.3013 86.9508 47.7413 88.2735 45.48C89.6388 43.2187 91.5375 41.448 93.9695 40.168C96.4015 38.8453 99.1962 38.184 102.354 38.184C105.553 38.184 108.327 38.8453 110.674 40.168C113.02 41.448 114.812 43.2187 116.049 45.48C117.329 47.7413 117.97 50.3013 117.97 53.16C117.97 56.0187 117.329 58.6 116.049 60.904C114.812 63.1653 113.02 64.9573 110.674 66.28C108.327 67.6027 105.511 68.264 102.226 68.264C99.1535 68.264 96.4015 67.6667 93.9695 66.472C91.5802 65.2773 89.7028 63.5493 88.3375 61.288C86.9722 59.0267 86.2895 56.3173 86.2895 53.16ZM95.3135 53.224C95.3135 54.6747 95.6122 55.9973 96.2095 57.192C96.8068 58.344 97.6175 59.2613 98.6415 59.944C99.6655 60.6267 100.818 60.968 102.098 60.968C103.506 60.968 104.721 60.6267 105.745 59.944C106.77 59.2613 107.559 58.344 108.114 57.192C108.668 55.9973 108.946 54.6747 108.946 53.224C108.946 51.7307 108.668 50.408 108.114 49.256C107.559 48.104 106.77 47.1867 105.745 46.504C104.721 45.8213 103.506 45.48 102.098 45.48C100.818 45.48 99.6655 45.8213 98.6415 46.504C97.6175 47.1867 96.8068 48.104 96.2095 49.256C95.6122 50.408 95.3135 51.7307 95.3135 53.224Z" fill="white"/>
<path d="M151.652 31.784C149.86 30.8027 148.025 29.992 146.148 29.352C144.313 28.712 142.585 28.392 140.964 28.392C138.959 28.392 137.38 28.7973 136.228 29.608C135.076 30.4187 134.5 31.6347 134.5 33.256C134.5 34.3653 134.927 35.368 135.78 36.264C136.676 37.1173 137.807 37.8853 139.172 38.568C140.58 39.2507 142.031 39.8693 143.524 40.424C144.889 40.936 146.233 41.5547 147.556 42.28C148.921 42.9627 150.137 43.8373 151.204 44.904C152.271 45.928 153.124 47.2293 153.764 48.808C154.404 50.344 154.724 52.2427 154.724 54.504C154.724 56.8933 154.105 59.112 152.868 61.16C151.631 63.208 149.817 64.872 147.428 66.152C145.039 67.3893 142.095 68.008 138.596 68.008C136.804 68.008 134.969 67.8373 133.092 67.496C131.257 67.112 129.444 66.5573 127.652 65.832C125.86 65.064 124.132 64.104 122.468 62.952L126.564 55.72C127.673 56.5307 128.868 57.256 130.148 57.896C131.471 58.4933 132.793 58.9627 134.116 59.304C135.439 59.6453 136.655 59.816 137.764 59.816C138.873 59.816 139.983 59.6667 141.092 59.368C142.244 59.0267 143.183 58.472 143.908 57.704C144.676 56.936 145.06 55.8693 145.06 54.504C145.06 53.5653 144.74 52.712 144.1 51.944C143.503 51.176 142.671 50.472 141.604 49.832C140.58 49.192 139.449 48.6373 138.212 48.168C136.761 47.6133 135.268 46.9733 133.732 46.248C132.196 45.5227 130.745 44.648 129.38 43.624C128.057 42.5573 126.969 41.256 126.116 39.72C125.305 38.1413 124.9 36.2213 124.9 33.96C124.9 31.2293 125.497 28.8613 126.692 26.856C127.929 24.8507 129.657 23.272 131.876 22.12C134.095 20.9253 136.655 20.264 139.556 20.136C143.353 20.136 146.425 20.584 148.772 21.48C151.161 22.376 153.295 23.4427 155.172 24.68L151.652 31.784Z" fill="white"/>
<path d="M162.34 67.496V17H171.109V45.16L171.044 44.072C172.026 42.3227 173.413 40.9147 175.204 39.848C176.997 38.7387 179.194 38.184 181.796 38.184C184.442 38.184 186.639 38.9733 188.389 40.552C190.181 42.088 191.098 44.0933 191.141 46.568V67.496H182.18V49.896C182.138 48.6587 181.796 47.6773 181.156 46.952C180.559 46.184 179.535 45.8 178.085 45.8C176.719 45.8 175.525 46.248 174.501 47.144C173.477 48.04 172.687 49.256 172.133 50.792C171.578 52.328 171.301 54.0987 171.301 56.104V67.496H162.34Z" fill="white"/>
<path d="M198.165 53.16C198.165 50.3013 198.826 47.7413 200.148 45.48C201.514 43.2187 203.412 41.448 205.844 40.168C208.277 38.8453 211.071 38.184 214.229 38.184C217.428 38.184 220.202 38.8453 222.549 40.168C224.895 41.448 226.687 43.2187 227.924 45.48C229.204 47.7413 229.844 50.3013 229.844 53.16C229.844 56.0187 229.204 58.6 227.924 60.904C226.687 63.1653 224.895 64.9573 222.549 66.28C220.202 67.6027 217.386 68.264 214.1 68.264C211.028 68.264 208.277 67.6667 205.844 66.472C203.455 65.2773 201.578 63.5493 200.212 61.288C198.847 59.0267 198.165 56.3173 198.165 53.16ZM207.189 53.224C207.189 54.6747 207.487 55.9973 208.085 57.192C208.682 58.344 209.492 59.2613 210.516 59.944C211.54 60.6267 212.693 60.968 213.973 60.968C215.381 60.968 216.596 60.6267 217.62 59.944C218.645 59.2613 219.434 58.344 219.988 57.192C220.543 55.9973 220.82 54.6747 220.82 53.224C220.82 51.7307 220.543 50.408 219.988 49.256C219.434 48.104 218.645 47.1867 217.62 46.504C216.596 45.8213 215.381 45.48 213.973 45.48C212.693 45.48 211.54 45.8213 210.516 46.504C209.492 47.1867 208.682 48.104 208.085 49.256C207.487 50.408 207.189 51.7307 207.189 53.224Z" fill="white"/>
<path d="M254.439 68.264C252.775 68.264 251.132 67.9653 249.511 67.368C247.932 66.728 246.61 65.832 245.543 64.68L245.799 62.056V80.936H236.903V38.888H244.583L245.863 44.328L245.159 42.408C246.61 41.1707 248.231 40.1467 250.023 39.336C251.815 38.5253 253.884 38.12 256.231 38.12C258.834 38.12 261.159 38.7387 263.207 39.976C265.255 41.1707 266.855 42.92 268.007 45.224C269.202 47.4853 269.799 50.216 269.799 53.416C269.799 56.5733 269.138 59.2613 267.815 61.48C266.492 63.6987 264.679 65.384 262.375 66.536C260.071 67.688 257.426 68.264 254.439 68.264ZM252.647 61.224C254.098 61.224 255.42 60.904 256.615 60.264C257.852 59.624 258.834 58.728 259.559 57.576C260.327 56.3813 260.711 55.0373 260.711 53.544C260.711 51.9653 260.37 50.6 259.687 49.448C259.047 48.2533 258.151 47.336 256.999 46.696C255.89 46.0133 254.652 45.672 253.287 45.672C252.092 45.672 251.026 45.8427 250.087 46.184C249.191 46.4827 248.38 46.952 247.655 47.592C246.972 48.1893 246.375 48.9573 245.863 49.896V56.744C246.204 57.64 246.695 58.4293 247.335 59.112C247.975 59.7947 248.743 60.328 249.639 60.712C250.578 61.0533 251.58 61.224 252.647 61.224Z" fill="white"/>
<path d="M287 72.0001V24L310.889 37.3334V58.8L330 69.6L349.111 58.8V37.3334L373 24V72.0001L330 96L287 72.0001Z" fill="#192657"/>
<path fill-rule="evenodd" clip-rule="evenodd" d="M298.944 30.6668L287 24L330 0L373 24L361.055 30.6668V66L330 84.0002L298.944 66L298.944 30.6668ZM359.762 31.3891L349.111 37.3334V37.2L330 26.4L310.889 37.2V37.3334L300.238 31.3891V65.2617L330 82.5117L359.762 65.2617V31.3891Z" fill="#64C2DB"/>
</svg>
